<?xml version="1.0" encoding="iso-8859-1"?>
<!-- Generator: Adobe Illustrator 17.1.0, SVG Export Plug-In . SVG Version: 6.00 Build 0)  -->
<!DOCTYPE svg PUBLIC "-//W3C//DTD SVG 1.1//EN" "http://www.w3.org/Graphics/SVG/1.1/DTD/svg11.dtd">
<svg version="1.1" id="Capa_1" xmlns="http://www.w3.org/2000/svg" xmlns:xlink="http://www.w3.org/1999/xlink" x="0px" y="0px"
	 viewBox="0 0 282.802 282.802" style="enable-background:new 0 0 282.802 282.802;" xml:space="preserve">
<path d="M277.249,4.4c-0.064-0.064-0.128-0.127-0.191-0.191c-0.328-0.327-0.67-0.632-1.021-0.922
	c-0.115-0.095-0.236-0.18-0.354-0.271c-0.241-0.186-0.483-0.37-0.733-0.539c-0.145-0.098-0.294-0.188-0.442-0.281
	c-0.233-0.146-0.467-0.287-0.706-0.418c-0.159-0.087-0.32-0.169-0.482-0.25c-0.239-0.119-0.479-0.231-0.723-0.337
	c-0.165-0.071-0.329-0.141-0.496-0.206c-0.253-0.098-0.509-0.186-0.767-0.269c-0.161-0.052-0.321-0.108-0.484-0.154
	c-0.287-0.082-0.576-0.149-0.867-0.213c-0.136-0.03-0.271-0.067-0.409-0.093c-0.428-0.081-0.859-0.146-1.293-0.188
	c-0.044-0.004-0.088-0.003-0.133-0.007c-0.391-0.034-0.783-0.054-1.176-0.057c-0.03,0-0.06-0.004-0.09-0.004
	c-0.301,0-0.602,0.014-0.903,0.033c-0.042,0.003-0.083,0.002-0.125,0.005c-0.377,0.027-0.752,0.071-1.127,0.128
	c-0.12,0.018-0.24,0.044-0.36,0.066c-0.256,0.045-0.511,0.094-0.765,0.153c-0.143,0.033-0.284,0.073-0.426,0.111
	c-0.231,0.062-0.461,0.128-0.69,0.201c-0.146,0.047-0.29,0.096-0.435,0.148c-0.227,0.081-0.451,0.169-0.675,0.262
	c-0.138,0.057-0.277,0.114-0.414,0.176c-0.239,0.108-0.475,0.227-0.71,0.349c-0.115,0.06-0.231,0.115-0.344,0.178
	c-0.344,0.191-0.683,0.394-1.015,0.616c-0.001,0.001-0.003,0.002-0.004,0.003L123.283,93.049l0,0l-53.652,76.89
	c-0.878-0.096-1.81-0.151-2.799-0.151c-11.149,0-23.437,6.635-36.522,19.72c-27.985,27.986-28.876,83.304-28.9,85.646l-0.079,7.648
	l7.649-0.071c2.344-0.022,57.715-0.861,85.703-28.85c19.976-19.976,21.084-34.353,19.123-42.312l76.876-51.121L279.195,22.35
	c0.913-1.424,1.547-2.959,1.91-4.536c0.272-1.182,0.391-2.388,0.362-3.587C281.377,10.63,279.942,7.09,277.249,4.4z
	 M112.133,194.667l-24.424-24.424l37.628-53.926l41.784,41.784L112.133,194.667z"/>
<g>
</g>
<g>
</g>
<g>
</g>
<g>
</g>
<g>
</g>
<g>
</g>
<g>
</g>
<g>
</g>
<g>
</g>
<g>
</g>
<g>
</g>
<g>
</g>
<g>
</g>
<g>
</g>
<g>
</g>
</svg>
