<?xml version="1.0" encoding="iso-8859-1"?>
<!-- Generator: Adobe Illustrator 19.0.0, SVG Export Plug-In . SVG Version: 6.00 Build 0)  -->
<svg version="1.1" id="Capa_1" xmlns="http://www.w3.org/2000/svg" xmlns:xlink="http://www.w3.org/1999/xlink" x="0px" y="0px"
	 viewBox="0 0 512 512" style="enable-background:new 0 0 512 512;" xml:space="preserve">
<g>
	<g>
		<path d="M467,60h-15V45c0-24.814-20.186-45-45-45H75C50.186,0,30,20.186,30,45v15H15C6.709,60,0,66.709,0,75s6.709,15,15,15h15v15
			c0,24.814,20.186,45,45,45h332c24.814,0,45-20.186,45-45V90h15c8.276,0,15,6.724,15,15v90c0,8.276-6.724,15-15,15H286
			c-24.814,0-45,20.186-45,45v15h-15c-7.471,0-13.799,5.493-14.854,12.876L204.414,330h103.173l-6.733-47.124
			C299.799,275.493,293.471,270,286,270h-15v-15c0-8.276,6.724-15,15-15h181c24.814,0,45-20.186,45-45v-90
			C512,80.186,491.814,60,467,60z"/>
	</g>
</g>
<g>
	<g>
		<path d="M322.372,435.477L311.873,360H200.127l-10.499,75.491C183.878,475.895,215.252,512,256,512
			C296.719,512,328.125,475.93,322.372,435.477z"/>
	</g>
</g>
<g>
</g>
<g>
</g>
<g>
</g>
<g>
</g>
<g>
</g>
<g>
</g>
<g>
</g>
<g>
</g>
<g>
</g>
<g>
</g>
<g>
</g>
<g>
</g>
<g>
</g>
<g>
</g>
<g>
</g>
</svg>
