<?xml version="1.0" encoding="iso-8859-1"?>
<!-- Generator: Adobe Illustrator 17.1.0, SVG Export Plug-In . SVG Version: 6.00 Build 0)  -->
<!DOCTYPE svg PUBLIC "-//W3C//DTD SVG 1.1//EN" "http://www.w3.org/Graphics/SVG/1.1/DTD/svg11.dtd">
<svg version="1.1" id="Capa_1" xmlns="http://www.w3.org/2000/svg" xmlns:xlink="http://www.w3.org/1999/xlink" x="0px" y="0px"
	 viewBox="0 0 288.922 288.922" style="enable-background:new 0 0 288.922 288.922;" xml:space="preserve">
<path d="M281.786,40.509H125.302c-0.077,0-0.153,0.233-0.229,0.236c-6.457-14.448-16.426-23.332-27.887-23.332l-0.371,0.059
	c-10.31,0.178-19.45,7.539-25.738,20.677c-5.49,11.472-8.364,26.495-8.092,42.278c0.04,2.31,0.147,4.586,0.311,6.816L2.453,144.914
	c-3.007,2.85-3.342,7.598-0.493,10.604l58.961,62.429v45.562c0,4.143,3.774,8,7.917,8h156.484c4.143,0,7.599-3.857,7.599-8v-51
	h48.864c4.143,0,7.136-3.425,7.136-7.567V48.458C288.922,44.315,285.929,40.509,281.786,40.509z M132.922,179.526l15.503-14.751
	l29.529,1.017c3.06,0.148,5.83-1.64,7.081-4.414c1.251-2.775,0.692-6.039-1.402-8.248l-36.605-38.62h70.894v83h-85V179.526z
	 M84.607,44.645c3.6-7.521,8.26-12.135,12.467-12.135h0.112c9.347,0,20.207,20.185,20.67,47.067
	c0.007,0.393,0.066,0.785,0.066,1.178v1.645c0,0.422-0.075,0.843-0.085,1.264L98.975,63.794c-1.368-1.443-3.269-2.285-5.257-2.338
	c-2.021-0.054-3.925,0.686-5.368,2.054l-10.23,9.693C78.696,62.446,80.967,52.248,84.607,44.645z M75.922,256.509v-26.227
	c2-0.019,3.917-0.698,5.347-2.053l36.653-34.486v11.199c0,4.143,3.237,7.567,7.38,7.567h92.62v44H75.922z M273.922,197.509h-40
	v-93.596c0-4.143-3.449-7.404-7.592-7.404h-93.408V82.511c0-0.555,0-1.112,0-1.669V55.509h141V197.509z"/>
<g>
</g>
<g>
</g>
<g>
</g>
<g>
</g>
<g>
</g>
<g>
</g>
<g>
</g>
<g>
</g>
<g>
</g>
<g>
</g>
<g>
</g>
<g>
</g>
<g>
</g>
<g>
</g>
<g>
</g>
</svg>
