<svg height="32px" viewBox="1 -38 511.99898 511" width="32px" xmlns="http://www.w3.org/2000/svg"><path d="m496.046875 56.136719h-243.164063l-24.1875-46.980469c-2.730468-5.316406-8.210937-8.65625-14.1875-8.65625h-121.75c-8.820312 0-15.953124 7.148438-15.953124 15.953125v79.675781h-60.851563c-8.816406 0-15.953125 7.148438-15.953125 15.953125v307.671875c0 8.804688 7.136719 15.953125 15.953125 15.953125h403.289063c8.816406 0 15.953124-7.148437 15.953124-15.953125v-79.675781h60.851563c8.816406 0 15.953125-7.148437 15.953125-15.953125v-252.035156c0-8.804688-7.136719-15.953125-15.953125-15.953125zm-15.953125 252.03125h-44.898438v-140.4375c0-8.816407-7.136718-15.953125-15.953124-15.953125h-243.164063l-24.183594-46.992188c-2.734375-5.316406-8.210937-8.65625-14.1875-8.65625h-28.996093v-63.722656h96.066406l24.1875 46.992188c2.742187 5.304687 8.210937 8.648437 14.1875 8.648437h236.941406zm-76.804688 95.628906h-371.382812v-275.761719h96.066406l24.195313 46.992188c2.734375 5.316406 8.203125 8.65625 14.179687 8.65625h236.941406zm0 0"/><path d="m286.21875 259.753906c-12.445312-27.070312-39.75-45.265625-70.753906-45.265625-28.929688 0-54.710938 15.644531-68.175782 40.179688-35.566406-5.5-67.105468 22.101562-67.105468 57.425781 0 32.023438 26.0625 58.105469 58.105468 58.105469h160.765626c30.878906 0 55.957031-25.132813 55.957031-55.964844 0-35.933594-33.605469-62.738281-68.792969-54.480469zm36.882812 54.476563c0 13.277343-10.789062 24.058593-24.046874 24.058593-214.523438 0 45.710937 0-160.765626 0-14.433593 0-26.195312-11.75-26.195312-26.195312 0-19.308594 20.167969-31.863281 37.40625-23.6875 8.828125 4.179688 19.230469-.484375 22.070312-9.6875 6-19.335938 23.632813-32.324219 43.894532-32.324219 22.25 0 41.269531 15.871094 45.214844 37.71875 2.050781 11.410157 15.25 16.855469 24.75 10.304688 15.785156-10.902344 37.671874.390625 37.671874 19.8125zm0 0"/></svg>