<?xml version="1.0" encoding="iso-8859-1"?>
<!-- Generator: Adobe Illustrator 17.1.0, SVG Export Plug-In . SVG Version: 6.00 Build 0)  -->
<!DOCTYPE svg PUBLIC "-//W3C//DTD SVG 1.1//EN" "http://www.w3.org/Graphics/SVG/1.1/DTD/svg11.dtd">
<svg version="1.1" id="Capa_1" xmlns="http://www.w3.org/2000/svg" xmlns:xlink="http://www.w3.org/1999/xlink" x="0px" y="0px"
	 viewBox="0 0 288 288" style="enable-background:new 0 0 288 288;" xml:space="preserve">
<g>
	<circle cx="25.417" cy="74.25" r="8.25"/>
	<path d="M190.166,164.5c-9.925,0-18,8.075-18,18s8.075,18,18,18s18-8.075,18-18S200.091,164.5,190.166,164.5z"/>
	<circle cx="25.417" cy="41.25" r="8.25"/>
	<path d="M266.398,86.561l-23.021-23.083C240.565,60.664,236.729,59,232.75,59h-10.917V26.167c0-4.143-2.607-7.167-6.75-7.167
		H165.25c-4.143,0-7.417,3.024-7.417,7.167V59h-10.25c-3.978,0-7.793,1.664-10.606,4.476l-23.375,23.043
		c-2.813,2.813-4.769,6.67-4.769,10.648V273c0,8.284,7.466,15,15.75,15H255.75c8.284,0,15.083-6.716,15.083-15V97.167
		C270.833,93.188,269.212,89.373,266.398,86.561z M190.166,230.5c-26.467,0-48-21.533-48-48s21.533-48,48-48s48,21.533,48,48
		S216.633,230.5,190.166,230.5z"/>
	<circle cx="116.417" cy="41.25" r="8.25"/>
	<circle cx="25.417" cy="8.25" r="8.25"/>
	<circle cx="70.417" cy="24.25" r="8.25"/>
	<circle cx="70.417" cy="57.25" r="8.25"/>
</g>
<g>
</g>
<g>
</g>
<g>
</g>
<g>
</g>
<g>
</g>
<g>
</g>
<g>
</g>
<g>
</g>
<g>
</g>
<g>
</g>
<g>
</g>
<g>
</g>
<g>
</g>
<g>
</g>
<g>
</g>
</svg>
