<?xml version="1.0" encoding="iso-8859-1"?>
<!-- Generator: Adobe Illustrator 19.0.0, SVG Export Plug-In . SVG Version: 6.00 Build 0)  -->
<svg version="1.1" id="Capa_1" xmlns="http://www.w3.org/2000/svg" xmlns:xlink="http://www.w3.org/1999/xlink" x="0px" y="0px"
	 viewBox="0 0 512 512" style="enable-background:new 0 0 512 512;" xml:space="preserve">
<g>
	<g>
		<path d="M421.015,331.985h-90.008v-15.001c0-24.816-20.188-45.004-45.004-45.004h-60.005c-24.816,0-45.004,20.188-45.004,45.004
			v15.001H90.986c-33.14,0-60.005,26.864-60.005,60.005v15.001c0,8.285,6.717,15.001,15.001,15.001h420.037
			c8.285,0,15.001-6.717,15.001-15.001V391.99C481.02,358.849,454.155,331.985,421.015,331.985z"/>
	</g>
</g>
<g>
	<g>
		<path d="M323.361,24.406c-23.909-19.997-55.465-28.259-86.64-22.722c-41.459,7.428-75.901,42.444-83.767,83.741
			c-5.42,28.435,0.498,57.943,16.672,81.28c14.053,20.281,24.734,45.09,32.371,75.271h108.356v0.001
			c7.225-25.146,19.058-52.721,36.93-84.064c8.98-15.748,13.727-33.709,13.727-51.948C361.01,74.79,347.283,44.432,323.361,24.406z"
			/>
	</g>
</g>
<g>
	<g>
		<path d="M60.983,451.995v15.001c0,24.816,20.188,45.004,45.004,45.004h300.026c24.816,0,45.004-20.188,45.004-45.004v-15.001
			H60.983z"/>
	</g>
</g>
<g>
</g>
<g>
</g>
<g>
</g>
<g>
</g>
<g>
</g>
<g>
</g>
<g>
</g>
<g>
</g>
<g>
</g>
<g>
</g>
<g>
</g>
<g>
</g>
<g>
</g>
<g>
</g>
<g>
</g>
</svg>
