<svg height="512pt" viewBox="0 0 512 512" width="512pt" xmlns="http://www.w3.org/2000/svg"><path d="m512 405.445312c0-46.023437-37.445312-83.46875-83.472656-83.46875h-94.578125c2.113281-56.1875 17.179687-113.238281 43.914062-165.847656 7.703125-15.160156 11.609375-31.523437 11.609375-48.632812.003906-59.273438-48.21875-107.496094-107.492187-107.496094h-51.957031c-59.273438 0-107.496094 48.222656-107.496094 107.496094 0 17.109375 3.90625 33.472656 11.609375 48.636718 26.734375 52.609376 41.800781 109.660157 43.914062 165.84375h-94.578125c-46.027344 0-83.472656 37.445313-83.472656 83.46875v46.507813h30.023438v60.046875h451.953124v-60.046875h30.023438zm-359.476562-297.949218c0-42.730469 34.765624-77.496094 77.496093-77.496094h51.957031c42.734376 0 77.496094 34.765625 77.496094 77.496094 0 12.34375-2.8125 24.132812-8.355468 35.042968-19.386719 38.15625-33.066407 78.539063-40.601563 119.390626h-109.03125c-7.535156-40.851563-21.214844-81.234376-40.601563-119.390626-5.546874-10.910156-8.359374-22.699218-8.359374-35.042968zm53.371093 184.433594h100.210938c-1.101563 10.019531-1.828125 20.046874-2.175781 30.046874h-95.859376c-.347656-10-1.074218-20.027343-2.175781-30.046874zm246.082031 190.070312h-391.953124v-30.046875h391.953124zm30.023438-60.046875h-452v-16.507813c0-29.480468 23.988281-53.46875 53.472656-53.46875h345.054688c29.484375 0 53.472656 23.984376 53.472656 53.46875zm0 0"/></svg>